<svg xmlns="http://www.w3.org/2000/svg" version="1.1" xmlns:xlink="http://www.w3.org/1999/xlink" xmlns:svgjs="http://svgjs.dev/svgjs" width="1500" height="530" viewBox="0 0 1500 530"><g transform="matrix(1,0,0,1,-0.9090909090909918,-0.8460631229235673)"><svg viewBox="0 0 396 140" data-background-color="#000000" preserveAspectRatio="xMidYMid meet" height="530" width="1500" xmlns="http://www.w3.org/2000/svg" xmlns:xlink="http://www.w3.org/1999/xlink"><g id="tight-bounds" transform="matrix(1,0,0,1,0.2400000000000091,0.22348837209301564)"><svg viewBox="0 0 395.52 139.55302325581394" height="139.55302325581394" width="395.52"><g><svg viewBox="0 0 395.52 139.55302325581394" height="139.55302325581394" width="395.52"><g><svg viewBox="0 0 395.52 139.55302325581394" height="139.55302325581394" width="395.52"><g id="textblocktransform"><svg viewBox="0 0 395.52 139.55302325581394" height="139.55302325581394" width="395.52" id="textblock"><g><svg viewBox="0 0 395.52 139.55302325581394" height="139.55302325581394" width="395.52"><g transform="matrix(1,0,0,1,0,0)"><svg width="395.52" viewBox="2 -37.7 137.59 48.550000000000004" height="139.55302325581394" data-palette-color="url(#1293e5a3-660c-4365-8b1a-a9e985135b1e)"><g class="wordmark-text-0" data-fill-palette-color="primary" id="text-0"></g></svg></g></svg></g></svg></g></svg></g><g></g></svg></g><defs></defs><mask id="ce57ac97-e649-4ae7-9446-af6f642fbb7a"><g id="SvgjsG1083"><svg viewBox="0 0 395.52 139.55302325581394" height="139.55302325581394" width="395.52"><g><svg viewBox="0 0 395.52 139.55302325581394" height="139.55302325581394" width="395.52"><g><svg viewBox="0 0 395.52 139.55302325581394" height="139.55302325581394" width="395.52"><g id="SvgjsG1082"><svg viewBox="0 0 395.52 139.55302325581394" height="139.55302325581394" width="395.52" id="SvgjsSvg1081"><g><svg viewBox="0 0 395.52 139.55302325581394" height="139.55302325581394" width="395.52"><g transform="matrix(1,0,0,1,0,0)"><svg width="395.52" viewBox="2 -37.7 137.59 48.550000000000004" height="139.55302325581394" data-palette-color="url(#1293e5a3-660c-4365-8b1a-a9e985135b1e)"><g class="wordmark-text-0" data-fill-palette-color="primary" id="SvgjsG1080"><path d="M29.05-34.55L31.25 0 25.2 0 24.6-14.6Q24.3-22.6 24.3-26L24.3-26 24.35-28.6 19.6-3.8 13.6-3.8 8.65-28.65Q8.7-27.15 8.7-24.05L8.7-24.05Q8.7-18.8 8.5-14.4L8.5-14.4 7.95 0 2 0 4.2-34.55 12.2-34.55 16.7-10.2 20.9-34.55 29.05-34.55ZM54.9-13.85Q54.9-13.4 54.75-11.3L54.75-11.3 41.1-11.3Q41.3-7.2 42.52-5.58 43.75-3.95 46-3.95L46-3.95Q47.55-3.95 48.8-4.48 50.05-5 51.5-6.15L51.5-6.15 54.05-2.65Q50.55 0.75 45.65 0.75L45.65 0.75Q40.45 0.75 37.67-2.85 34.9-6.45 34.9-13L34.9-13Q34.9-19.55 37.55-23.35 40.2-27.15 45.05-27.15L45.05-27.15Q49.7-27.15 52.3-23.78 54.9-20.4 54.9-13.85L54.9-13.85ZM48.9-15.3L48.9-15.65Q48.9-19.4 48-21.13 47.1-22.85 45.1-22.85L45.1-22.85Q43.25-22.85 42.27-21.18 41.3-19.5 41.1-15.3L41.1-15.3 48.9-15.3ZM64.8 0.75Q62.1 0.75 60.52-0.93 58.95-2.6 58.95-5.4L58.95-5.4 58.95-37.05 65.1-37.7 65.1-5.65Q65.1-5 65.4-4.6 65.7-4.2 66.3-4.2L66.3-4.2Q66.65-4.2 66.97-4.3 67.3-4.4 67.4-4.4L67.4-4.4 68.6-0.2Q66.9 0.75 64.8 0.75L64.8 0.75ZM81.04-27.15Q86.04-27.15 88.82-23.65 91.59-20.15 91.59-13.25L91.59-13.25Q91.59-6.65 88.79-2.95 85.99 0.75 81.04 0.75L81.04 0.75Q76.09 0.75 73.29-2.88 70.49-6.5 70.49-13.25L70.49-13.25Q70.49-19.95 73.29-23.55 76.09-27.15 81.04-27.15L81.04-27.15ZM81.04-22.5Q78.89-22.5 77.89-20.38 76.89-18.25 76.89-13.25L76.89-13.25Q76.89-8.2 77.89-6.08 78.89-3.95 81.04-3.95L81.04-3.95Q83.19-3.95 84.19-6.08 85.19-8.2 85.19-13.25L85.19-13.25Q85.19-18.3 84.19-20.4 83.19-22.5 81.04-22.5L81.04-22.5ZM109.09-37.7L115.24-37.05 115.24 0 109.79 0 109.49-3.05Q107.14 0.75 103.44 0.75L103.44 0.75Q99.34 0.75 97.17-2.93 94.99-6.6 94.99-13.2L94.99-13.2Q94.99-17.4 96.12-20.58 97.24-23.75 99.24-25.45 101.24-27.15 103.84-27.15L103.84-27.15Q107.04-27.15 109.09-24.5L109.09-24.5 109.09-37.7ZM105.19-3.9Q106.34-3.9 107.27-4.7 108.19-5.5 109.09-7L109.09-7 109.09-19.85Q107.49-22.55 105.44-22.55L105.44-22.55Q101.39-22.55 101.39-13.25L101.39-13.25Q101.39-8.2 102.39-6.05 103.39-3.9 105.19-3.9L105.19-3.9ZM139.59-26.45L132.59 0.1Q131.29 4.9 128.39 7.65 125.49 10.4 120.64 10.85L120.64 10.85 119.94 6.5Q123.09 5.85 124.66 4.42 126.24 3 127.14 0L127.14 0 124.84 0 118.14-26.45 124.39-26.45 128.79-4.1 133.49-26.45 139.59-26.45Z" fill="white"></path></g></svg></g></svg></g></svg></g></svg></g><g></g></svg></g><defs><mask></mask></defs></svg><rect width="395.52" height="139.55302325581394" fill="black" stroke="none" visibility="hidden"></rect></g></mask><linearGradient x1="0" x2="1" y1="0.548" y2="0.55" id="1293e5a3-660c-4365-8b1a-a9e985135b1e"><stop stop-color="#ff6cab" offset="0"></stop><stop stop-color="#7366ff" offset="1"></stop></linearGradient><rect width="395.52" height="139.55302325581394" fill="url(#1293e5a3-660c-4365-8b1a-a9e985135b1e)" mask="url(#ce57ac97-e649-4ae7-9446-af6f642fbb7a)" data-fill-palette-color="primary"></rect></svg><rect width="395.52" height="139.55302325581394" fill="none" stroke="none" visibility="hidden"></rect></g></svg></g></svg>