<svg xmlns="http://www.w3.org/2000/svg" version="1.1" xmlns:xlink="http://www.w3.org/1999/xlink" xmlns:svgjs="http://svgjs.dev/svgjs" width="1500" height="393" viewBox="0 0 1500 393"><g transform="matrix(1,0,0,1,-0.9090909090909918,-1.4429349702666059)"><svg viewBox="0 0 396 104" data-background-color="#000000" preserveAspectRatio="xMidYMid meet" height="393" width="1500" xmlns="http://www.w3.org/2000/svg" xmlns:xlink="http://www.w3.org/1999/xlink"><g id="tight-bounds" transform="matrix(1,0,0,1,0.2400000000000091,0.3818453865336551)"><svg viewBox="0 0 395.52 103.23630922693266" height="103.23630922693266" width="395.52"><g><svg viewBox="0 0 395.52 103.23630922693266" height="103.23630922693266" width="395.52"><g><svg viewBox="0 0 395.52 103.23630922693266" height="103.23630922693266" width="395.52"><g id="textblocktransform"><svg viewBox="0 0 395.52 103.23630922693266" height="103.23630922693266" width="395.52" id="textblock"><g><svg viewBox="0 0 395.52 103.23630922693266" height="103.23630922693266" width="395.52"><g transform="matrix(1,0,0,1,0,0)"><svg width="395.52" viewBox="4.3 -37.1 180.44 47.1" height="103.23630922693266" data-palette-color="#f73086"><g class="wordmark-text-0" data-fill-palette-color="primary" id="text-0"><path d="M4.3 0L4.3-35 11.95-35 23.55-12.05 35.05-35 42.7-35 42.7 0 36.55 0 36.55-25.65 25.65-3.6 21.35-3.6 10.4-25.65 10.4 0 4.3 0ZM53.95-15.35L69.1-15.35Q69-17.45 68.15-18.93 67.3-20.4 65.77-21.23 64.25-22.05 62.3-22.05L62.3-22.05Q60.05-22.05 58.4-21 56.75-19.95 55.82-18.05 54.9-16.15 54.9-13.65L54.9-13.65Q54.9-10.9 55.92-8.9 56.95-6.9 58.75-5.83 60.55-4.75 62.9-4.75L62.9-4.75Q67.15-4.75 70.15-7.8L70.15-7.8 73.6-4.35Q71.6-2.15 68.75-0.95 65.9 0.25 62.4 0.25L62.4 0.25Q58.2 0.25 55.12-1.48 52.05-3.2 50.32-6.23 48.6-9.25 48.6-13.3L48.6-13.3Q48.6-17.35 50.32-20.4 52.05-23.45 55.12-25.15 58.2-26.85 62.2-26.9L62.2-26.9Q66.95-26.9 69.87-24.95 72.8-23 74.05-19.48 75.3-15.95 74.95-11.1L74.95-11.1 53.95-11.1 53.95-15.35ZM80.89 0L80.89-37.1 87.39-37.1 87.39 0 80.89 0ZM107.44-26.9L107.44-26.9Q111.59-26.9 114.77-25.2 117.94-23.5 119.72-20.45 121.49-17.4 121.49-13.35L121.49-13.35Q121.49-9.3 119.72-6.25 117.94-3.2 114.77-1.48 111.59 0.25 107.44 0.25L107.44 0.25Q103.24 0.25 100.04-1.48 96.84-3.2 95.07-6.25 93.29-9.3 93.29-13.35L93.29-13.35Q93.29-17.4 95.07-20.45 96.84-23.5 100.04-25.2 103.24-26.9 107.44-26.9ZM107.44-21.65L107.44-21.65Q105.19-21.65 103.47-20.58 101.74-19.5 100.79-17.63 99.84-15.75 99.84-13.3L99.84-13.3Q99.84-10.8 100.79-8.9 101.74-7 103.47-5.95 105.19-4.9 107.44-4.9L107.44-4.9Q109.64-4.9 111.34-5.95 113.04-7 113.99-8.9 114.94-10.8 114.94-13.3L114.94-13.3Q114.94-15.75 113.99-17.63 113.04-19.5 111.34-20.58 109.64-21.65 107.44-21.65ZM137.29-26.95L137.29-26.95Q140.94-26.95 143.49-25.3 146.04-23.65 147.39-20.63 148.74-17.6 148.69-13.35L148.69-13.35Q148.74-9.15 147.42-6.08 146.09-3 143.54-1.38 140.99 0.25 137.44 0.25L137.44 0.25Q133.64 0.25 130.77-1.48 127.89-3.2 126.29-6.3 124.69-9.4 124.69-13.4L124.69-13.4Q124.69-17.45 126.29-20.5 127.89-23.55 130.72-25.25 133.54-26.95 137.29-26.95ZM138.84-21.7L138.84-21.7Q136.64-21.7 134.91-20.6 133.19-19.5 132.24-17.6 131.29-15.7 131.24-13.25L131.24-13.25Q131.29-10.8 132.24-8.9 133.19-7 134.91-5.93 136.64-4.85 138.84-4.85L138.84-4.85Q141.09-4.85 142.81-5.93 144.54-7 145.49-8.9 146.44-10.8 146.44-13.25L146.44-13.25Q146.44-15.75 145.49-17.63 144.54-19.5 142.81-20.6 141.09-21.7 138.84-21.7ZM146.44 0L146.44-37.1 152.94-37.1 152.94 0 146.44 0ZM184.74-26.65L172.74 3.5Q171.44 6.7 169.14 8.35 166.84 10 163.64 10L163.64 10Q161.69 10 160.11 9.4 158.54 8.8 156.99 7.65L156.99 7.65 159.79 2.95Q161.59 4.3 163.24 4.3L163.24 4.3Q164.54 4.3 165.51 3.6 166.49 2.9 167.14 1.45L167.14 1.45 167.94-0.4 156.89-26.65 163.64-26.65 171.24-6.85 178.19-26.65 184.74-26.65Z" fill="#f73086" data-fill-palette-color="primary"></path></g></svg></g></svg></g></svg></g></svg></g><g></g></svg></g><defs></defs></svg><rect width="395.52" height="103.23630922693266" fill="none" stroke="none" visibility="hidden"></rect></g></svg></g></svg>