<svg xmlns="http://www.w3.org/2000/svg" version="1.1" xmlns:xlink="http://www.w3.org/1999/xlink"
    xmlns:svgjs="http://svgjs.dev/svgjs" width="1500" height="382" viewBox="0 0 1500 382">
    <g transform="matrix(1,0,0,1,-0.9090909090909918,-1.6703306423555375)">
        <svg viewBox="0 0 396 101" data-background-color="#000000"
            preserveAspectRatio="xMidYMid meet" height="382" width="1500"
            xmlns="http://www.w3.org/2000/svg" xmlns:xlink="http://www.w3.org/1999/xlink">
            <g id="tight-bounds" transform="matrix(1,0,0,1,0.2400000000000091,0.44163192376416305)">
                <svg viewBox="0 0 395.52 100.11673615247169" height="100.11673615247169"
                    width="395.52">
                    <g>
                        <svg viewBox="0 0 395.52000000000004 100.1167361524717"
                            height="100.11673615247169" width="395.52">
                            <g>
                                <svg viewBox="0 0 395.52000000000004 100.1167361524717"
                                    height="100.1167361524717" width="395.52000000000004">
                                    <g id="textblocktransform">
                                        <svg viewBox="0 0 395.52000000000004 100.1167361524717"
                                            height="100.1167361524717" width="395.52000000000004"
                                            id="textblock">
                                            <g>
                                                <svg
                                                    viewBox="0 0 395.52000000000004 100.1167361524717"
                                                    height="100.1167361524717"
                                                    width="395.52000000000004">
                                                    <g transform="matrix(1,0,0,1,0,0)">
                                                        <svg width="395.52000000000004"
                                                            viewBox="2.55 -33.7 169.14 42.5"
                                                            height="100.1167361524717"
                                                            data-palette-color="#f62f6b">
                                                            <g class="wordmark-text-0"
                                                                data-fill-palette-color="primary"
                                                                id="text-0">
                                                                <path
                                                                    d="M10.6 0L2.55 0 2.55-32.2 10.5-32.2 19.25-14.35 27.95-32.2 35.85-32.2 35.85 0 27.8 0 27.8-18.5 21.45-5.5 17-5.5 10.6-18.5 10.6 0ZM53.65 0.5L53.65 0.5Q47.45 0.5 43.7-2.58 39.95-5.65 39.95-11.85L39.95-11.85Q39.95-17.5 43.05-20.85 46.15-24.2 52.35-24.2L52.35-24.2Q58-24.2 61.1-21.3 64.2-18.4 64.2-13.5L64.2-13.5 64.2-9.25 47.4-9.25Q47.95-6.9 49.97-5.98 52-5.05 55.5-5.05L55.5-5.05Q57.45-5.05 59.47-5.4 61.5-5.75 62.85-6.3L62.85-6.3 62.85-1.05Q61.15-0.25 58.8 0.13 56.45 0.5 53.65 0.5ZM47.4-13.9L47.4-13.9 57.2-13.9 57.2-14.95Q57.2-16.7 56.15-17.73 55.1-18.75 52.6-18.75L52.6-18.75Q49.7-18.75 48.55-17.57 47.4-16.4 47.4-13.9ZM75.59 0.5L75.59 0.5Q71.7 0.5 70-1.2 68.3-2.9 68.3-6.65L68.3-6.65 68.3-33.7 76.34-33.7 76.34-7.45Q76.34-6.3 76.82-5.88 77.3-5.45 78.25-5.45L78.25-5.45Q79.59-5.45 80.65-5.8L80.65-5.8 80.65-0.35Q79.5 0.1 78.37 0.3 77.25 0.5 75.59 0.5ZM96.04 0.5L96.04 0.5Q89.19 0.5 85.94-2.68 82.69-5.85 82.69-11.85L82.69-11.85Q82.69-17.8 85.97-21 89.24-24.2 96.04-24.2L96.04-24.2Q102.89-24.2 106.17-21 109.44-17.8 109.44-11.85L109.44-11.85Q109.44-5.85 106.19-2.68 102.94 0.5 96.04 0.5ZM96.04-5.8L96.04-5.8Q98.84-5.8 100.04-7.2 101.24-8.6 101.24-11.85L101.24-11.85Q101.24-15.1 100.04-16.5 98.84-17.9 96.04-17.9L96.04-17.9Q93.29-17.9 92.09-16.5 90.89-15.1 90.89-11.85L90.89-11.85Q90.89-8.6 92.09-7.2 93.29-5.8 96.04-5.8ZM123.49 0.5L123.49 0.5Q120.04 0.5 117.59-0.6 115.14-1.7 113.84-4.23 112.54-6.75 112.54-11L112.54-11Q112.54-15.3 114.04-18.23 115.54-21.15 118.17-22.68 120.79-24.2 124.19-24.2L124.19-24.2Q126.04-24.2 127.52-23.8 128.99-23.4 130.29-22.6L130.29-22.6 130.29-33.7 138.34-33.7 138.34 0 131.39 0 130.94-2Q129.49-0.75 127.69-0.13 125.89 0.5 123.49 0.5ZM125.79-5.35L125.79-5.35Q128.44-5.35 130.29-7.15L130.29-7.15 130.29-16.75Q128.59-18.3 125.94-18.3L125.94-18.3Q123.39-18.3 122.07-16.38 120.74-14.45 120.74-10.95L120.74-10.95Q120.74-7.55 122.02-6.45 123.29-5.35 125.79-5.35ZM150.49 8.8L150.49 8.8Q148.69 8.8 147.41 8.63 146.14 8.45 144.89 7.95L144.89 7.95 144.89 2.35Q145.74 2.65 146.46 2.75 147.19 2.85 147.94 2.85L147.94 2.85Q149.99 2.85 151.01 2.13 152.04 1.4 153.09-0.45L153.09-0.45 142.44-23.7 150.89-23.7 157.14-8.65 163.29-23.7 171.69-23.7 162.64-1.95Q161.29 1.3 159.64 3.73 157.99 6.15 155.79 7.48 153.59 8.8 150.49 8.8Z"
                                                                    fill="#f62f6b"
                                                                    data-fill-palette-color="primary"></path>
                                                            </g>
                                                        </svg>
                                                    </g>
                                                </svg>
                                            </g>
                                        </svg>
                                    </g>
                                </svg>
                            </g>
                            <g></g>
                        </svg>
                    </g>
                    <defs></defs>
                </svg>
                <rect width="395.52" height="100.11673615247169" fill="none" stroke="none"
                    visibility="hidden"></rect>
            </g>
        </svg>
    </g>
</svg>